<svg width="32" height="32" viewBox="0 0 32 32" fill="none" xmlns="http://www.w3.org/2000/svg">
<rect width="32" height="32" fill="#D9D9D9"/>
<path d="M11 30C10.45 30 9.97933 29.8043 9.588 29.413C9.19667 29.0217 9.00067 28.5507 9 28C8.99933 27.4493 9.19533 26.9787 9.588 26.588C9.98067 26.1973 10.4513 26.0013 11 26C11.5487 25.9987 12.0197 26.1947 12.413 26.588C12.8063 26.9813 13.002 27.452 13 28C12.998 28.548 12.8023 29.019 12.413 29.413C12.0237 29.807 11.5527 30.0027 11 30ZM21 30C20.45 30 19.9793 29.8043 19.588 29.413C19.1967 29.0217 19.0007 28.5507 19 28C18.9993 27.4493 19.1953 26.9787 19.588 26.588C19.9807 26.1973 20.4513 26.0013 21 26C21.5487 25.9987 22.0197 26.1947 22.413 26.588C22.8063 26.9813 23.002 27.452 23 28C22.998 28.548 22.8023 29.019 22.413 29.413C22.0237 29.807 21.5527 30.0027 21 30ZM9.2 12H23.95C24.3333 12 24.625 12.171 24.825 12.513C25.025 12.855 25.0333 13.2007 24.85 13.55L21.3 19.95C21.1167 20.2833 20.871 20.5417 20.563 20.725C20.255 20.9083 19.9173 21 19.55 21H12.1L11 23H23V25H11C10.25 25 9.68333 24.671 9.3 24.013C8.91667 23.355 8.9 22.7007 9.25 22.05L10.6 19.6L7 12H5V10H8.25L9.2 12Z" fill="black"/>
<path d="M15 10C14.725 10 14.4897 9.90217 14.294 9.7065C14.0983 9.51084 14.0003 9.27534 14 9C13.9997 8.72467 14.0977 8.48934 14.294 8.294C14.4903 8.09867 14.7257 8.00067 15 8H20C20.275 8 20.5105 8.098 20.7065 8.294C20.9025 8.49 21.0003 8.72534 21 9C20.9997 9.27467 20.9018 9.51017 20.7065 9.7065C20.5112 9.90284 20.2757 10.0007 20 10H15ZM15 7C14.725 7 14.4897 6.90217 14.294 6.7065C14.0983 6.51084 14.0003 6.27534 14 6C13.9997 5.72467 14.0977 5.48934 14.294 5.294C14.4903 5.09867 14.7257 5.00067 15 5H20C20.275 5 20.5105 5.098 20.7065 5.294C20.9025 5.49 21.0003 5.72534 21 6C20.9997 6.27467 20.9018 6.51017 20.7065 6.7065C20.5112 6.90284 20.2757 7.00067 20 7H15ZM15 4C14.725 4 14.4897 3.90217 14.294 3.7065C14.0983 3.51084 14.0003 3.27534 14 3C13.9997 2.72467 14.0977 2.48934 14.294 2.294C14.4903 2.09867 14.7257 2.00067 15 2H20C20.275 2 20.5105 2.098 20.7065 2.294C20.9025 2.49 21.0003 2.72534 21 3C20.9997 3.27467 20.9018 3.51017 20.7065 3.7065C20.5112 3.90284 20.2757 4.00067 20 4H15ZM12 4C11.725 4 11.4897 3.90217 11.294 3.7065C11.0983 3.51084 11.0003 3.27534 11 3C10.9997 2.72467 11.0977 2.48934 11.294 2.294C11.4903 2.09867 11.7257 2.00067 12 2C12.2743 1.99934 12.5098 2.09734 12.7065 2.294C12.9032 2.49067 13.001 2.726 13 3C12.999 3.274 12.9012 3.5095 12.7065 3.7065C12.5118 3.9035 12.2763 4.00134 12 4ZM12 7C11.725 7 11.4897 6.90217 11.294 6.7065C11.0983 6.51084 11.0003 6.27534 11 6C10.9997 5.72467 11.0977 5.48934 11.294 5.294C11.4903 5.09867 11.7257 5.00067 12 5C12.2743 4.99934 12.5098 5.09734 12.7065 5.294C12.9032 5.49067 13.001 5.726 13 6C12.999 6.274 12.9012 6.5095 12.7065 6.7065C12.5118 6.9035 12.2763 7.00134 12 7ZM12 10C11.725 10 11.4897 9.90217 11.294 9.7065C11.0983 9.51084 11.0003 9.27534 11 9C10.9997 8.72467 11.0977 8.48934 11.294 8.294C11.4903 8.09867 11.7257 8.00067 12 8C12.2743 7.99934 12.5098 8.09734 12.7065 8.294C12.9032 8.49067 13.001 8.726 13 9C12.999 9.274 12.9012 9.5095 12.7065 9.7065C12.5118 9.9035 12.2763 10.0013 12 10Z" fill="black"/>
</svg>
